<svg width="301" height="257" viewBox="0 0 301 257" fill="none" xmlns="http://www.w3.org/2000/svg">
<circle cx="172.5" cy="128.5" r="128.5" transform="rotate(-180 172.5 128.5)" fill="#2C7DDE" fill-opacity="0.8"/>
<rect width="93" height="11" rx="5.5" transform="matrix(1 0 0 -1 36 168)" fill="white"/>
<rect width="93" height="11" rx="5.5" transform="matrix(1 0 0 -1 36 168)" fill="white"/>
<rect width="93" height="11" rx="5.5" transform="matrix(1 0 0 -1 36 168)" fill="white"/>
<rect width="93" height="4" rx="2" transform="matrix(1 0 0 -1 0 129)" fill="white"/>
<rect width="93" height="4" rx="2" transform="matrix(1 0 0 -1 0 129)" fill="white"/>
<rect width="93" height="4" rx="2" transform="matrix(1 0 0 -1 0 129)" fill="white"/>
<rect width="42" height="4" rx="2" transform="matrix(1 0 0 -1 23 145)" fill="white"/>
<rect width="42" height="4" rx="2" transform="matrix(1 0 0 -1 23 145)" fill="white"/>
<rect width="42" height="4" rx="2" transform="matrix(1 0 0 -1 23 145)" fill="white"/>
</svg>
