<svg width="174" height="257" viewBox="0 0 174 257" fill="none" xmlns="http://www.w3.org/2000/svg">
<circle cx="1.5" cy="128.5" r="128.5" fill="#2C7DDE" fill-opacity="0.6"/>
<rect width="93" height="11" rx="5.5" transform="matrix(-1 0 0 1 138 89)" fill="white"/>
<rect width="93" height="11" rx="5.5" transform="matrix(-1 0 0 1 138 89)" fill="white"/>
<rect width="93" height="11" rx="5.5" transform="matrix(-1 0 0 1 138 89)" fill="white"/>
<rect width="93" height="4" rx="2" transform="matrix(-1 0 0 1 174 128)" fill="white"/>
<rect width="93" height="4" rx="2" transform="matrix(-1 0 0 1 174 128)" fill="white"/>
<rect width="93" height="4" rx="2" transform="matrix(-1 0 0 1 174 128)" fill="white"/>
<rect width="42" height="4" rx="2" transform="matrix(-1 0 0 1 151 112)" fill="white"/>
<rect width="42" height="4" rx="2" transform="matrix(-1 0 0 1 151 112)" fill="white"/>
<rect width="42" height="4" rx="2" transform="matrix(-1 0 0 1 151 112)" fill="white"/>
</svg>
